<svg width="24" height="24" viewBox="0 0 24 24" fill="none" xmlns="http://www.w3.org/2000/svg">
<path d="M12 2.25C17.3848 2.25 21.75 6.61522 21.75 12C21.75 17.3848 17.3848 21.75 12 21.75C6.61522 21.75 2.25 17.3848 2.25 12C2.25 6.61522 6.61522 2.25 12 2.25ZM14.8281 9.17285C14.5352 8.88017 14.0594 8.88003 13.7666 9.17285L10.4512 12.4883V10.7637C10.4511 10.3495 10.1153 10.0137 9.70117 10.0137C9.2872 10.0139 8.95123 10.3497 8.95117 10.7637V14.2998C8.95145 14.7136 9.28734 15.0486 9.70117 15.0488H13.2363C13.6504 15.0488 13.986 14.7138 13.9863 14.2998C13.9863 13.8856 13.6505 13.5498 13.2363 13.5498H11.5117L14.8281 10.2334C15.1207 9.94057 15.1207 9.46568 14.8281 9.17285Z" fill="#0052FF"/>
</svg>
