<svg width="23" height="23" viewBox="0 0 23 23" fill="none" xmlns="http://www.w3.org/2000/svg">
<path d="M9.9759 5.55286L9.97571 4.62806C9.97551 3.606 10.804 2.77734 11.8261 2.77734C12.8478 2.77734 13.6762 3.60555 13.6764 4.62732L13.6766 5.55286M13.676 17.1175H16.853C18.3271 17.1175 19.1196 15.3858 18.1561 14.2702L17.4972 13.5073C16.6821 12.5636 16.2907 11.3263 16.4149 10.0855C16.6825 7.41105 14.5823 5.09027 11.8945 5.09027H11.7581C9.07014 5.09027 6.96974 7.41106 7.23705 10.0857C7.36105 11.3264 6.96974 12.5635 6.15481 13.5072L5.49613 14.27C4.5326 15.3857 5.32525 17.1175 6.79947 17.1175H9.97534M13.676 17.1175V17.5801C13.676 18.602 12.8476 19.4304 11.8257 19.4304C10.8038 19.4304 9.97534 18.602 9.97534 17.5801V17.1175M13.676 17.1175H9.97534" stroke="#FAFAFA" stroke-width="1.38776" stroke-linejoin="round"/>
</svg>
