<svg width="24" height="24" viewBox="0 0 24 24" fill="none" xmlns="http://www.w3.org/2000/svg">
<path d="M22 12H21C21 16.9706 16.9706 21 12 21V22V23C18.0751 23 23 18.0751 23 12H22ZM12 22V21C7.02944 21 3 16.9706 3 12H2H1C1 18.0751 5.92487 23 12 23V22ZM2 12H3C3 7.02944 7.02944 3 12 3V2V1C5.92487 1 1 5.92487 1 12H2ZM12 2V3C16.9706 3 21 7.02944 21 12H22H23C23 5.92487 18.0751 1 12 1V2ZM11 8V9H13.5V8V7H11V8ZM13.5 12V11H11V12V13H13.5V12ZM11 12H12V8H11H10V12H11ZM15.5 10H14.5C14.5 10.5523 14.0523 11 13.5 11V12V13C15.1569 13 16.5 11.6569 16.5 10H15.5ZM13.5 8V9C14.0523 9 14.5 9.44772 14.5 10H15.5H16.5C16.5 8.34315 15.1569 7 13.5 7V8ZM13.5 16V15H11V16V17H13.5V16ZM11 16H12V12H11H10V16H11ZM15.5 14H14.5C14.5 14.5523 14.0523 15 13.5 15V16V17C15.1569 17 16.5 15.6569 16.5 14H15.5ZM13.5 12V13C14.0523 13 14.5 13.4477 14.5 14H15.5H16.5C16.5 12.3431 15.1569 11 13.5 11V12ZM12.5 8H13.5V6H12.5H11.5V8H12.5ZM12.5 16H11.5V18H12.5H13.5V16H12.5ZM11 8V7H8.5V8V9H11V8ZM11 16V15H8.5V16V17H11V16Z" fill="#A0AEC0"/>
</svg>
