<svg width="22" height="22" viewBox="0 0 22 22" fill="none" xmlns="http://www.w3.org/2000/svg">
<path d="M6.93453 8.65159C6.93453 9.14953 6.53087 9.55318 6.03294 9.55318C5.535 9.55318 5.13135 9.14953 5.13135 8.65159C5.13135 8.15366 5.535 7.75 6.03294 7.75C6.53087 7.75 6.93453 8.15366 6.93453 8.65159Z" fill="#FAFAFA"/>
<path d="M10.5409 8.65159C10.5409 9.14953 10.1372 9.55318 9.6393 9.55318C9.14137 9.55318 8.73771 9.14953 8.73771 8.65159C8.73771 8.15366 9.14137 7.75 9.6393 7.75C10.1372 7.75 10.5409 8.15366 10.5409 8.65159Z" fill="#FAFAFA"/>
<path d="M14.1473 8.65159C14.1473 9.14953 13.7436 9.55318 13.2457 9.55318C12.7477 9.55318 12.3441 9.14953 12.3441 8.65159C12.3441 8.15366 12.7477 7.75 13.2457 7.75C13.7436 7.75 14.1473 8.15366 14.1473 8.65159Z" fill="#FAFAFA"/>
<path d="M9.86469 13.1593C9.86469 13.1593 9.86469 13.1593 9.86469 13.1593ZM9.86469 13.1593C9.86469 14.6531 11.0757 15.864 12.5695 15.864M16.4012 7.52433C16.4012 7.52433 16.4012 7.52433 16.4012 7.52433ZM16.4012 7.52433C17.895 7.52433 19.106 8.7353 19.106 10.2291M5.58173 13.1581H6.03252L5.13093 15.4121L9.63888 13.1581H11.6675C13.5668 13.1581 14.5165 13.1581 15.1987 12.7023C15.4941 12.5049 15.7476 12.2514 15.945 11.956C16.4008 11.2738 16.4008 10.3241 16.4008 8.42476C16.4008 6.52538 16.4008 5.57569 15.945 4.89349C15.7476 4.59815 15.4941 4.34458 15.1987 4.14724C14.5165 3.69141 13.5668 3.69141 11.6675 3.69141H7.61031C5.71093 3.69141 4.76124 3.69141 4.07903 4.14724C3.7837 4.34458 3.53013 4.59815 3.33279 4.89349C2.87695 5.57569 2.87695 6.52538 2.87695 8.42476V10.4533M5.58173 13.1581C5.58173 13.1581 5.58173 13.1581 5.58173 13.1581ZM5.58173 13.1581C4.08792 13.1581 2.87695 11.9471 2.87695 10.4533M2.87695 10.4533C2.87695 10.4533 2.87695 10.4533 2.87695 10.4533ZM19.106 10.2291V14.0695C19.106 15.0606 18.3025 15.864 17.3114 15.864H17.3028V18.118L14.598 15.864H12.5695M19.106 10.2291C19.106 10.2291 19.106 10.2291 19.106 10.2291ZM12.5695 15.864C12.5695 15.864 12.5695 15.864 12.5695 15.864Z" stroke="#FAFAFA" stroke-width="1.35239" stroke-linecap="round" stroke-linejoin="round"/>
</svg>
