<svg width="25" height="25" viewBox="0 0 25 25" fill="none" xmlns="http://www.w3.org/2000/svg">
<path fill-rule="evenodd" clip-rule="evenodd" d="M14.832 7.49001C13.7211 7.49001 12.8206 8.39054 12.8206 9.50141C12.8206 10.6123 13.7211 11.5128 14.832 11.5128C15.9428 11.5128 16.8434 10.6123 16.8434 9.50141C16.8434 8.39054 15.9428 7.49001 14.832 7.49001ZM13.8263 9.50141C13.8263 8.94598 14.2765 8.49571 14.832 8.49571C15.3874 8.49571 15.8377 8.94598 15.8377 9.50141C15.8377 10.0568 15.3874 10.5071 14.832 10.5071C14.2765 10.5071 13.8263 10.0568 13.8263 9.50141Z" fill="#718096"/>
<path fill-rule="evenodd" clip-rule="evenodd" d="M18.0232 6.03401C16.1617 4.36614 13.3005 4.523 11.6326 6.38449L10.8952 7.20747C9.72579 8.51265 9.74327 10.468 10.8751 11.7505L4.50739 18.8573C3.93831 19.4924 3.99186 20.4686 4.62699 21.0377C5.23084 21.5787 6.15029 21.5606 6.73233 20.9962L7.15917 20.5822L7.63527 21.0088C8.21452 21.5278 9.10733 21.4688 9.61318 20.878C10.1032 20.3057 10.0464 19.4468 9.48529 18.9441L9.00501 18.5137L9.34056 18.1392L9.84909 18.5949C10.3973 19.0861 11.244 19.0234 11.7138 18.4567C12.1589 17.9199 12.1001 17.1274 11.5808 16.6621L11.0232 16.1624L13.1264 13.767C14.5245 14.7491 16.4677 14.5519 17.6361 13.2479L18.3738 12.4246C20.0417 10.5631 19.8846 7.70188 18.0232 6.03401ZM12.3816 7.05561C13.6789 5.60781 15.9042 5.48578 17.352 6.78303C18.7999 8.08027 18.922 10.3056 17.6248 11.7534L16.887 12.5768C15.9972 13.5699 14.4708 13.6536 13.4778 12.7638C13.2285 12.5404 12.8449 12.5634 12.624 12.8149L9.61052 16.2471L10.9097 17.4111C11.0265 17.5158 11.0397 17.694 10.9396 17.8148C10.8339 17.9422 10.6435 17.9563 10.5202 17.8459L9.26266 16.7191L7.58487 18.5916L8.81417 19.6931C8.96818 19.8311 8.98377 20.0668 8.84927 20.2239C8.71043 20.3861 8.46538 20.4023 8.30639 20.2598L7.13206 19.2076L6.0322 20.2742C5.82926 20.471 5.50866 20.4773 5.29811 20.2887C5.07665 20.0902 5.05798 19.7499 5.25641 19.5284L11.8779 12.1383C12.0997 11.8908 12.0788 11.5103 11.8313 11.2886C10.838 10.3986 10.7543 8.87188 11.6442 7.87859L12.3816 7.05561Z" fill="#718096"/>
</svg>
