<svg width="25" height="25" viewBox="0 0 25 25" fill="none" xmlns="http://www.w3.org/2000/svg">
<path d="M19.3799 6.44826C19.3799 8.12615 16.2061 9.48636 12.291 9.48636C8.37596 9.48636 5.20215 8.12615 5.20215 6.44826M19.3799 6.44826C19.3799 4.77036 16.2061 3.41016 12.291 3.41016C8.37596 3.41016 5.20215 4.77036 5.20215 6.44826M19.3799 6.44826V18.6007C19.3799 20.2786 16.2061 21.6388 12.291 21.6388C8.37596 21.6388 5.20215 20.2786 5.20215 18.6007V6.44826M19.3799 10.4991C19.3799 12.177 16.2061 13.5372 12.291 13.5372C8.37596 13.5372 5.20215 12.177 5.20215 10.4991M19.3799 14.5499C19.3799 16.2278 16.2061 17.588 12.291 17.588C8.37596 17.588 5.20215 16.2278 5.20215 14.5499" stroke="#09311C" stroke-width="1.51905" stroke-linejoin="round"/>
</svg>
