<svg width="12" height="12" viewBox="0 0 12 12" fill="none" xmlns="http://www.w3.org/2000/svg">
<path d="M6.18164 2.68359C8.005 2.68359 9.39445 4.02921 10.1885 5.05469C10.4741 5.42361 10.6177 5.60898 10.6699 6.00293C10.6822 6.09599 10.6822 6.29699 10.6699 6.38965C10.6177 6.78354 10.4741 6.96801 10.1885 7.33691C9.39448 8.36242 8.00514 9.70801 6.18164 9.70801C4.35813 9.70793 2.96875 8.36241 2.1748 7.33691C1.88922 6.96804 1.74656 6.78348 1.69434 6.38965C1.68205 6.29696 1.68209 6.09595 1.69434 6.00293C1.74655 5.60898 1.88918 5.42361 2.1748 5.05469C2.96878 4.02922 4.35827 2.68367 6.18164 2.68359ZM6.18164 4.60938C5.30566 4.60946 4.5957 5.32029 4.5957 6.19629C4.59587 7.07215 5.30576 7.78214 6.18164 7.78223C7.05759 7.78223 7.76741 7.0722 7.76758 6.19629C7.76758 5.32023 7.05769 4.60938 6.18164 4.60938Z" fill="#0052FF" fill-opacity="0.33"/>
<path d="M6.18201 3.02344C7.65102 3.02344 8.93988 4.08954 9.76379 4.98572C10.1295 5.38353 10.3124 5.58244 10.3741 5.9945C10.3892 6.09537 10.3892 6.29645 10.3741 6.39732C10.3124 6.80938 10.1295 7.00829 9.76379 7.4061C8.93988 8.30228 7.65102 9.36838 6.18201 9.36838C4.71299 9.36838 3.42414 8.30228 2.60023 7.4061C2.23449 7.00829 2.05162 6.80938 1.9899 6.39732C1.97479 6.29645 1.97479 6.09537 1.9899 5.9945C2.05162 5.58244 2.23449 5.38353 2.60023 4.98572C3.42414 4.08954 4.71299 3.02344 6.18201 3.02344Z" stroke="#0052FF" stroke-opacity="0.33" stroke-width="0.679816" stroke-linejoin="round"/>
</svg>
