<svg width="25" height="25" viewBox="0 0 25 25" fill="none" xmlns="http://www.w3.org/2000/svg">
<path d="M12.0908 21.6953C17.0614 21.6953 21.0908 17.6659 21.0908 12.6953C21.0908 11.4539 20.8395 10.2712 20.3849 9.19532M12.0908 21.6953C7.12026 21.6953 3.09082 17.6659 3.09082 12.6953C3.09082 11.4539 3.34216 10.2712 3.79674 9.1953M12.0908 21.6953C14.5028 20.0808 16.0908 15.8157 16.0908 12.6953C16.0908 9.5749 14.5028 5.30984 12.0908 3.69531M12.0908 21.6953C9.67885 20.0808 8.09082 15.8157 8.09082 12.6953C8.09082 9.5749 9.67885 5.30984 12.0908 3.69531M12.0908 3.69531C8.36167 3.69531 5.16225 5.96336 3.79674 9.1953M12.0908 3.69531C15.82 3.69531 19.0194 5.96338 20.3849 9.19532M3.79674 9.1953C5.16225 12.4272 8.36167 14.6953 12.0908 14.6953C15.82 14.6953 19.0194 12.4273 20.3849 9.19532" stroke="#718096" stroke-width="1.5" stroke-linejoin="round"/>
</svg>
