<svg width="25" height="25" viewBox="0 0 25 25" fill="none" xmlns="http://www.w3.org/2000/svg">
<path fill-rule="evenodd" clip-rule="evenodd" d="M11.844 14.1107C11.1712 14.1107 10.5004 13.8885 9.93918 13.444L5.42862 9.80736C5.10378 9.54588 5.0535 9.07019 5.31397 8.74635C5.57646 8.42352 6.05115 8.37223 6.37499 8.63271L10.8815 12.2653C11.4477 12.7138 12.2452 12.7138 12.8155 12.2613L17.2768 8.63472C17.6006 8.37022 18.0753 8.42051 18.3388 8.74434C18.6013 9.06717 18.552 9.54186 18.2291 9.80535L13.7598 13.4379C13.1946 13.8865 12.5188 14.1107 11.844 14.1107Z" fill="#718096"/>
<mask id="mask0_13131_17520" style="mask-type:luminance" maskUnits="userSpaceOnUse" x="1" y="2" width="22" height="21">
<path fill-rule="evenodd" clip-rule="evenodd" d="M1.00586 2.58203H22.6283V22.1931H1.00586V2.58203Z" fill="white"/>
</mask>
<g mask="url(#mask0_13131_17520)">
<path fill-rule="evenodd" clip-rule="evenodd" d="M6.87764 20.6826H16.7536C16.7556 20.6806 16.7637 20.6826 16.7697 20.6826C17.9172 20.6826 18.935 20.2723 19.7154 19.4929C20.6215 18.5908 21.1193 17.2944 21.1193 15.8432V8.93609C21.1193 6.12717 19.2829 4.08862 16.7536 4.08862H6.87965C4.35032 4.08862 2.51392 6.12717 2.51392 8.93609V15.8432C2.51392 17.2944 3.01274 18.5908 3.91787 19.4929C4.69829 20.2723 5.71707 20.6826 6.86356 20.6826H6.87764ZM6.86054 22.1912C5.30875 22.1912 3.9229 21.628 2.85284 20.562C1.66109 19.3732 1.00537 17.6977 1.00537 15.8432V8.93609C1.00537 5.31256 3.53068 2.58008 6.87965 2.58008H16.7536C20.1026 2.58008 22.6279 5.31256 22.6279 8.93609V15.8432C22.6279 17.6977 21.9722 19.3732 20.7804 20.562C19.7114 21.627 18.3245 22.1912 16.7697 22.1912H16.7536H6.87965H6.86054Z" fill="#718096"/>
</g>
</svg>
