<svg width="25" height="26" viewBox="0 0 25 26" fill="none" xmlns="http://www.w3.org/2000/svg">
<path d="M12.7729 3.43359C18.1577 3.43359 22.5229 7.79882 22.5229 13.1836C22.5229 18.5684 18.1577 22.9336 12.7729 22.9336C7.38817 22.9336 3.02295 18.5684 3.02295 13.1836C3.02295 7.79882 7.38817 3.43359 12.7729 3.43359ZM11.5356 10.1367C11.1215 10.1368 10.7856 10.4725 10.7856 10.8867C10.7857 11.3009 11.1215 11.6367 11.5356 11.6367H13.2603L9.94482 14.9521C9.65193 15.245 9.65193 15.7208 9.94482 16.0137C10.2377 16.3062 10.7126 16.3062 11.0054 16.0137L14.3218 12.6973V14.4219C14.3218 14.8361 14.6576 15.1719 15.0718 15.1719C15.4857 15.1716 15.8208 14.8359 15.8208 14.4219V10.8867C15.8208 10.4727 15.4857 10.137 15.0718 10.1367H11.5356Z" fill="#0052FF"/>
</svg>
