<svg width="21" height="21" viewBox="0 0 21 21" fill="none" xmlns="http://www.w3.org/2000/svg">
<path d="M10.4023 0.582031C15.7871 0.582031 20.1523 4.94725 20.1523 10.332C20.1523 15.7168 15.7871 20.082 10.4023 20.082C5.01757 20.082 0.652344 15.7168 0.652344 10.332C0.652344 4.94725 5.01757 0.582031 10.4023 0.582031ZM6.40234 16.5322H8.70312C9.19945 16.5321 9.60156 16.1292 9.60156 15.6328V13.333L6.40234 16.5322ZM7.52637 5.33203C6.90591 5.33203 6.40234 5.8354 6.40234 6.45703V9.33203L11.8877 7.84766L6.40234 13.332H10.4023C11.5069 13.332 12.5072 12.8842 13.2305 12.1611C13.9537 11.4379 14.4022 10.4372 14.4023 9.33301C14.4027 8.22788 13.9541 7.22758 13.2305 6.50391C12.5072 5.78063 11.5067 5.33203 10.4023 5.33203H7.52637Z" fill="#0052FF"/>
</svg>
